<svg id="Layer_1" enable-background="new 0 0 512 512" height="512" viewBox="0 0 512 512" width="512" xmlns="http://www.w3.org/2000/svg" fill="#04ac69"><g><g><circle cx="416" cy="302.57" r="10"/><path d="m146 73.5c-19.299 0-35 15.701-35 35s15.701 35 35 35 35-15.701 35-35-15.701-35-35-35zm0 50c-8.271 0-15-6.729-15-15s6.729-15 15-15 15 6.729 15 15-6.729 15-15 15z"/><path d="m146 188.5c-19.299 0-35 15.701-35 35s15.701 35 35 35 35-15.701 35-35-15.701-35-35-35zm0 50c-8.271 0-15-6.729-15-15s6.729-15 15-15 15 6.729 15 15-6.729 15-15 15z"/><path d="m146 278.5c-19.299 0-35 15.701-35 35s15.701 35 35 35 35-15.701 35-35-15.701-35-35-35zm0 50c-8.271 0-15-6.729-15-15s6.729-15 15-15 15 6.729 15 15-6.729 15-15 15z"/><path d="m146 368.5c-19.299 0-35 15.701-35 35s15.701 35 35 35 35-15.701 35-35-15.701-35-35-35zm0 50c-8.271 0-15-6.729-15-15s6.729-15 15-15 15 6.729 15 15-6.729 15-15 15z"/><path d="m426 131.72v-81.72c0-6.75-1.32-13.3-3.93-19.46-2.52-5.96-6.12-11.3-10.72-15.89-4.59-4.6-9.93-8.2-15.89-10.72-6.16-2.61-12.71-3.93-19.46-3.93h-260c-6.75 0-13.3 1.32-19.46 3.93-5.96 2.52-11.3 6.12-15.89 10.72-4.6 4.59-8.2 9.93-10.72 15.89-2.61 6.16-3.93 12.71-3.93 19.46v412c0 6.75 1.32 13.3 3.93 19.46 2.52 5.96 6.12 11.3 10.72 15.89 4.59 4.6 9.93 8.2 15.89 10.72 6.16 2.61 12.71 3.93 19.46 3.93h260c6.75 0 13.3-1.32 19.46-3.93 5.96-2.52 11.3-6.12 15.89-10.72 4.6-4.59 8.2-9.93 10.72-15.89 2.61-6.16 3.93-12.71 3.93-19.46v-114.43c0-5.51-4.49-10-10-10s-10 4.49-10 10v114.43c-.03 16.51-13.49 29.97-30 30h-260c-16.51-.03-29.97-13.49-30-30v-412c.03-16.51 13.49-29.97 30-30h260c16.51.03 29.97 13.49 30 30v80h-31.134c-3.439-15.09-14.477-27.316-28.866-32.42v-12.58c0-22.056-17.944-40-40-40h-20c-22.056 0-40 17.944-40 40v12.58c-17.459 6.192-30 22.865-30 42.42v40c0 19.555 12.541 36.228 30 42.42v204.58c0 22.056 17.944 40 40 40h20c22.056 0 40-17.944 40-40v-204.58c14.39-5.104 25.427-17.329 28.866-32.42h31.134v67.57c0 5.52 4.49 10 10 10 5.52 0 10-4.48 10-10v-69.29c11.64-4.12 20-15.24 20-28.28s-8.36-24.16-20-28.28zm-170 72.777c-11.397-2.323-20-12.424-20-24.497v-40c0-12.073 8.603-22.174 20-24.497zm10-119.497c0-11.028 8.972-20 20-20h20c11.028 0 20 8.972 20 20v10h-60zm60 342c0 11.028-8.972 20-20 20h-20c-11.028 0-20-8.972-20-20v-202h60zm30-247c0 13.785-11.215 25-25 25h-55v-90h55c13.785 0 25 11.215 25 25zm60-10h-40v-20h40c5.51 0 10 4.49 10 10s-4.49 10-10 10z"/><path d="m296 427c5.523 0 10-4.477 10-10v-162c0-5.523-4.477-10-10-10s-10 4.477-10 10v162c0 5.523 4.477 10 10 10z"/></g></g></svg>