<?xml version="1.0" encoding="iso-8859-1"?>
<!-- Generator: Adobe Illustrator 19.0.0, SVG Export Plug-In . SVG Version: 6.00 Build 0)  -->
<svg version="1.1" id="Capa_1" xmlns="http://www.w3.org/2000/svg" xmlns:xlink="http://www.w3.org/1999/xlink" x="0px" y="0px"
	 viewBox="0 0 511.919 511.919" style="enable-background:new 0 0 511.919 511.919;" xml:space="preserve" fill="#04ac69">
<path d="M378.843,374.089c-15.8-11.781-33.202-21.245-51.678-28.105c-0.565-5.16-1.014-10.037-1.344-14.123
				c11.189-9.226,16.132-24.029,12.731-38.128c23.711-11.234,36.847-46.835,36.875-68.324c0.025-14.737-6.004-20.133-11.096-22.075
				c-4.751-1.848-9.964-2.146-14.894-0.851c2.675-22.467-2.6-45.161-14.91-64.145c-14.825-20.25-39.475-30.517-73.275-30.517
				h-10.584c-33.8,0-58.45,10.267-73.275,30.517c-12.311,18.988-17.586,41.687-14.909,64.157c-4.94-1.296-10.164-0.998-14.925,0.851
				c-5.063,1.929-11.092,7.325-11.067,22.063c0.028,21.489,13.164,57.09,36.875,68.324c-3.39,14.041,1.499,28.788,12.606,38.022
				c-0.377,4.435-0.843,9.252-1.403,14.246c-18.459,6.858-35.845,16.316-51.632,28.087c-2.919,2.217-4.096,6.05-2.925,9.523
				c1.172,3.473,4.431,5.81,8.096,5.806l0,0c1.862,0.001,3.673-0.61,5.154-1.737c11.957-8.949,24.952-16.418,38.703-22.246
				c-0.485,4.284-1.535,8.484-3.123,12.492c-2.155,2.156-2.997,5.297-2.208,8.242c0.789,2.944,3.089,5.244,6.033,6.033
				c2.944,0.789,6.086-0.053,8.242-2.209c2.104-2.104,6.479-6.479,10.025-36.754l0.027-0.242l0.024-0.217
				c0.353-2.731,0.632-5.444,0.911-8.146c0.069,0.071,0.17,0.142,0.237,0.213c3.165,3.73,5.933,7.779,8.258,12.083
				c6.346,10.675,14.246,23.958,29.688,23.958h31.758c15.442,0,23.342-13.283,29.688-23.958c2.326-4.304,5.093-8.353,8.258-12.083
				l0.085-0.077c0.281,2.734,0.584,5.534,0.936,8.402c3.112,25.346,6.262,33.05,10.033,36.821c1.682,1.674,3.96,2.612,6.333,2.608
				c3.381,0.01,6.44-2.003,7.768-5.112c1.328-3.109,0.668-6.711-1.677-9.147c-1.791-4.096-2.94-8.444-3.406-12.891
				c13.735,5.825,26.715,13.289,38.66,22.228c2.428,1.844,5.655,2.253,8.467,1.073c2.811-1.18,4.779-3.771,5.163-6.796
				C382.53,378.933,381.271,375.934,378.843,374.089z M343.497,235.802c0.206-0.649,1.622-5.3,3.066-12.369
				c0.627-0.292,1.214-0.662,1.747-1.102c4.338-4.125,7.533-3.8,9.213-3.3c1.58,8.227,0.796,16.734-2.263,24.533
				c-3.134,11.727-9.381,22.389-18.079,30.857C337.716,261.34,339.837,248.372,343.497,235.802z M156.659,243.564L156.659,243.564
				c-3.055-7.8-3.84-16.306-2.262-24.533c1.704-0.496,4.896-0.804,9.213,3.3c0.534,0.438,1.12,0.807,1.746,1.099
				c1.444,7.07,2.86,11.723,3.066,12.372c3.677,12.569,5.802,25.541,6.326,38.626C166.045,265.96,159.794,255.296,156.659,243.564z
				 M307.555,324.602c-3.614,2.533-7.006,5.369-10.138,8.479c-4.068,4.638-7.611,9.712-10.563,15.13
				c-5.775,9.712-9.667,15.612-15.017,15.612H240.08c-5.35,0-9.242-5.9-15.017-15.612c-2.952-5.417-6.494-10.492-10.562-15.13
				c-3.132-3.11-6.523-5.947-10.138-8.479c-9.954-7.4-17.142-12.742-14.133-28.563c2.841-21.944,0.951-44.242-5.541-65.396
				c-0.163-0.512-15.975-51.554,6.479-82.225h0c11.425-15.612,31.446-23.529,59.5-23.529h10.583c28.029,0,48.037,7.9,59.471,23.483
				c22.412,30.546,6.667,81.766,6.508,82.271c-6.493,21.153-8.382,43.452-5.542,65.396
				C324.697,311.86,317.51,317.202,307.555,324.602z"/>
			<path d="M123.927,202.805c-1.763-2.493-4.723-3.854-7.763-3.571c-3.04,0.284-5.697,2.17-6.967,4.946
				c-9.117,20.109-9.117,43.174,0,63.283c1.395,3.028,4.424,4.968,7.758,4.967c2.908,0,5.616-1.481,7.185-3.93
				s1.782-5.528,0.565-8.17c-7.039-15.581-7.039-33.436,0-49.017C125.986,208.543,125.689,205.298,123.927,202.805z"/>
			<path d="M99.043,187.044c2.451-4.012,1.194-9.251-2.81-11.714c-4.004-2.464-9.247-1.224-11.723,2.773
				c-21.711,35.417-21.711,80.021,0,115.438c1.553,2.528,4.308,4.067,7.275,4.062c3.089-0.004,5.935-1.677,7.441-4.375
				c1.506-2.697,1.436-5.998-0.182-8.629C80.709,254.664,80.709,216.978,99.043,187.044z"/>
			<path d="M391.408,200.008c-4.277,1.967-6.153,7.026-4.194,11.306c7.039,15.581,7.039,33.436,0,49.017
				c-1.966,4.283-0.093,9.349,4.188,11.321c4.283,1.967,9.349,0.093,11.321-4.188c9.117-20.109,9.117-43.174,0-63.283
				C400.747,199.908,395.685,198.041,391.408,200.008z"/>
			<path d="M415.672,175.306c-4.013,2.469-5.265,7.724-2.796,11.738c18.333,29.934,18.333,67.62,0,97.554
				c-1.187,1.927-1.559,4.247-1.035,6.448s1.903,4.104,3.831,5.289c1.927,1.187,4.247,1.559,6.448,1.034
				c2.201-0.524,4.104-1.902,5.289-3.83c21.711-35.417,21.711-80.021,0-115.437C424.94,174.089,419.685,172.837,415.672,175.306z"/>
			<path d="M510.809,159.289c-0.019-6.794-2.755-13.299-7.6-18.063L367.805,7.394C363,2.584,356.457-0.081,349.659,0.002
				L159.289,1.11c-6.794,0.019-13.299,2.755-18.063,7.6L7.397,144.11c-4.759,4.84-7.417,11.362-7.396,18.15l1.108,190.37
				c0.019,6.794,2.755,13.299,7.6,18.063l135.4,133.829c4.807,4.724,11.273,7.379,18.013,7.396h0.137l190.371-1.108
				c6.794-0.019,13.299-2.755,18.063-7.6l133.829-135.4c4.759-4.84,7.417-11.362,7.396-18.15L510.809,159.289z M492.384,355.806
				L358.551,491.21c-1.586,1.615-3.753,2.527-6.017,2.533l-190.371,1.108h-0.046c-2.247-0.004-4.403-0.89-6.004-2.467
				L20.709,358.552c-1.615-1.586-2.527-3.753-2.533-6.017l-1.108-190.371c-0.008-2.263,0.878-4.438,2.467-6.05L153.368,20.71
				c1.586-1.615,3.753-2.527,6.017-2.533l190.371-1.108h0.046c2.245,0.004,4.399,0.888,6,2.463l0.004,0.004l135.404,133.833
				c1.615,1.586,2.527,3.753,2.533,6.017l1.108,190.371C494.86,352.019,493.973,354.194,492.384,355.806z"/>
			<path d="M471.813,158.018L351.434,39.056c-3.19-3.163-7.504-4.932-11.996-4.921h-0.096l-169.254,0.983
				c-4.529,0.013-8.865,1.838-12.042,5.067L39.068,160.535c-3.194,3.213-4.97,7.57-4.933,12.1l0.983,169.225
				c0.013,4.53,1.84,8.866,5.071,12.041l120.379,118.963c3.19,3.163,7.504,4.932,11.996,4.921h0.096l169.254-0.983
				c4.529-0.013,8.865-1.838,12.042-5.067l118.979-120.35c3.194-3.213,4.97-7.57,4.933-12.1l-0.983-169.221
				C476.871,165.533,475.045,161.195,471.813,158.018z M341.818,459.735l-169.255,0.983L52.188,341.76l-8.537,0.05l8.533-0.05
				l-0.983-169.221L170.184,52.185l169.254-0.983L459.818,170.16l0.983,169.221L341.818,459.735z"/>
</svg>
