<svg id="Capa_1" enable-background="new 0 0 512 512" height="512" viewBox="0 0 512 512" width="512" xmlns="http://www.w3.org/2000/svg"  fill="#04ac69"><g><path d="m288.336 102.096c-6.807-11.591-18.896-18.511-32.338-18.51-13.441 0-25.529 6.92-32.335 18.511l-71.654 122.022c-2.097 3.572-.902 8.168 2.67 10.265 3.57 2.097 8.167.903 10.266-2.669l71.654-122.023c4.083-6.954 11.336-11.106 19.4-11.106 8.065 0 15.318 4.151 19.403 11.106l158.5 269.897c4.138 7.047 4.184 15.49.122 22.585-4.059 7.091-11.357 11.325-19.522 11.326h-317c-8.17 0-15.47-4.231-19.528-11.321-4.059-7.089-4.012-15.527.125-22.572l71.654-122.022c2.097-3.572.902-8.168-2.67-10.265-3.57-2.097-8.167-.903-10.266 2.669l-71.654 122.022c-6.894 11.741-6.972 25.804-.207 37.62s18.932 18.87 32.546 18.869h317c13.612-.001 25.776-7.057 32.541-18.874 6.767-11.822 6.689-25.89-.207-37.633z"/><path d="m256 392c16.542 0 30-13.458 30-30s-13.458-30-30-30-30 13.458-30 30 13.458 30 30 30zm0-45c8.271 0 15 6.729 15 15s-6.729 15-15 15-15-6.729-15-15 6.729-15 15-15z"/><path d="m256 317c14.213 0 25.727-11.134 26.213-25.347.003-.098.008-.197.012-.297 0 0 3.775-111.149 3.775-111.355 0-16.542-13.458-30-30-30s-30 13.458-30 30c0 .206 3.775 111.355 3.775 111.355.004.1.009.199.016.297.482 14.213 11.996 25.347 26.209 25.347zm0-15c-6.084 0-11.014-4.77-11.222-10.86-.001-.045-.003-.09-.006-.135-.099-2.442-2.499-73.163-3.762-110.444l-.01-.561c0-8.271 6.729-15 15-15s15 6.729 15 15l-.01.562c-1.263 37.281-3.664 108.001-3.762 110.444-.002.045-.004.09-.006.135-.208 6.089-5.138 10.859-11.222 10.859z"/><path d="m498.631 341.706-158.494-270.001c-17.465-29.734-49.704-48.205-84.137-48.205-34.437 0-66.674 18.471-84.131 48.206l.057.033c-.582.861-158.565 269.969-158.565 269.969-8.741 14.901-13.361 31.946-13.361 49.292 0 53.762 43.738 97.5 97.5 97.5h317c53.762 0 97.5-43.738 97.5-97.5 0-17.352-4.623-34.397-13.369-49.294zm-84.131 131.794h-317c-45.49 0-82.5-37.009-82.5-82.5 0-14.68 3.907-29.101 11.298-41.7 1.574-2.681 157.371-268.077 158.49-269.972 14.792-25.194 42.072-40.828 71.212-40.828 29.137 0 56.421 15.634 71.202 40.8 1.572 2.678 157.044 267.52 158.473 269.964 7.416 12.633 11.325 27.052 11.325 41.736 0 45.491-37.01 82.5-82.5 82.5z"/></g></svg>